<?xml version="1.0" encoding="iso-8859-1"?>
<!-- Uploaded to: SVG Repo, www.svgrepo.com, Generator: SVG Repo Mixer Tools -->
<svg height="800px" width="800px" version="1.1" id="Layer_1" xmlns="http://www.w3.org/2000/svg" xmlns:xlink="http://www.w3.org/1999/xlink" 
	 viewBox="0 0 509 509" xml:space="preserve">
<circle style="fill:#4B5AA7;" cx="254.5" cy="254.5" r="254.5"/>
<g>
	<path style="fill:#D7E2F2;" d="M72.3,172.1v-10.6c0-4.1-3.3-7.4-7.4-7.4h-29c-8.8,0-15.9,7.1-15.9,15.9s7.1,15.9,15.9,15.9h46.7
		V172H72.3V172.1z"/>
	<path style="fill:#D7E2F2;" d="M436.7,172.1v-10.6c0-4.1,3.3-7.4,7.4-7.4h29c8.8,0,15.9,7.1,15.9,15.9s-7.1,15.9-15.9,15.9h-46.7
		V172h10.3V172.1z"/>
</g>
<g>
	<path style="fill:#333842;" d="M38.1,318.9v97.9c0,4.9,3.9,8.8,8.8,8.8h40.5c4.9,0,8.8-3.9,8.8-8.8v-97.9H38.1z"/>
	<path style="fill:#333842;" d="M470.9,318.9v97.9c0,4.9-3.9,8.8-8.8,8.8h-40.5c-4.9,0-8.8-3.9-8.8-8.8v-97.9H470.9z"/>
</g>
<path style="fill:#BECEE7;" d="M458,196.5l-17.8-8.9c0,0-36.5-77.9-50.3-89.8c-6.9-5.9-71.1-14.5-135.4-14.5
	c-64.2,0-128.5,8.6-135.4,14.5c-13.8,11.8-50.3,89.8-50.3,89.8L51,196.5L30.3,236l12.3,132.2c0.8,9,8.4,15.8,17.3,15.8h389
	c9,0,16.5-6.8,17.3-15.8L478.5,236L458,196.5z"/>
<polygon style="fill:#8FA3C1;" points="56.4,232.5 38.1,273.9 121,278.5 142.4,245.2 "/>
<polygon style="fill:#F8B517;" points="56.4,232.5 56.4,274.9 38.1,273.9 "/>
<g>
	<circle style="fill:#FFFFFC;" cx="76.2" cy="255.1" r="16.8"/>
	<circle style="fill:#FFFFFC;" cx="109.7" cy="259.8" r="13.5"/>
</g>
<path style="fill:#393D47;" d="M125.2,335.7l-15.5,29.1H59.3l7.7-18.6c2.6-6.4,8.9-10.5,15.7-10.5H125.2z"/>
<circle style="fill:#DEDEDF;" cx="84.6" cy="350.7" r="11.6"/>
<g>
	<path style="fill:#D7E2F2;" d="M98.6,187.7c0,0,40.3,8.9,57.9,58.6l-19.6,42.2l-13.7-10l19.2-33.2
		C142.4,245.2,135.9,216.4,98.6,187.7z"/>
	<path style="fill:#D7E2F2;" d="M136.9,288.4c0,0-92.5,6.8-98.8,0c-6.4-6.8,0-14.5,0-14.5l85.1,4.6L136.9,288.4z"/>
</g>
<polygon style="fill:#8FA3C1;" points="452.6,232.5 470.9,273.9 388,278.5 366.6,245.2 "/>
<polygon style="fill:#F8B517;" points="452.6,232.5 452.6,274.9 470.9,273.9 "/>
<g>
	<circle style="fill:#FFFFFC;" cx="432.8" cy="255.1" r="16.8"/>
	<circle style="fill:#FFFFFC;" cx="399.3" cy="259.8" r="13.5"/>
</g>
<path style="fill:#393D47;" d="M383.8,335.7l15.5,29.1h50.3l-7.7-18.6c-2.6-6.4-8.9-10.5-15.7-10.5H383.8z"/>
<circle style="fill:#DEDEDF;" cx="424.4" cy="350.7" r="11.6"/>
<path style="fill:#D7E2F2;" d="M410.4,187.7c0,0-40.3,8.9-57.9,58.6l19.6,42.2l13.7-10l-19.2-33.2
	C366.6,245.2,373.1,216.4,410.4,187.7z"/>
<g>
	<path style="fill:#393D47;" d="M372.6,292.9c-5.5-15.2-19.1-44.5-26.7-46.7c-3.8-1.1-47.6-3.5-91.4-3.5s-87.6,2.5-91.4,3.5
		c-7.6,2.2-21.2,31.5-26.7,46.7c-5.5,15.2,8.1,15,8.1,15h220.1C364.6,308,378.1,308.1,372.6,292.9z"/>
	<path style="fill:#393D47;" d="M352.5,342.3h-196c0,0-15.6,0.3-27.2,22.6h250.3C368.1,342.6,352.5,342.3,352.5,342.3z"/>
	<polygon style="fill:#393D47;" points="373.9,373.4 135.1,373.4 130.4,383.9 378.6,383.9 	"/>
</g>
<path style="fill:#4485C5;" d="M383.8,105.4c-11.1-3.6-70.2-10-129.3-10s-118.2,6.4-129.3,10c0,0-31.8,45-45.7,82.3h350
	C415.6,150.4,383.8,105.4,383.8,105.4z"/>
<path style="fill:#D7E2F2;" d="M372.1,288.4c0,0,92.5,6.8,98.8,0c6.4-6.8,0-14.5,0-14.5l-85.1,4.6L372.1,288.4z"/>
</svg>